<svg xmlns="http://www.w3.org/2000/svg" width="24" height="16" viewBox="0 0 24 16">
    <path fill="#4A5365" fill-rule="nonzero" d="M4.5 16a.5.5 0 1 1 0-1h3a.5.5 0 1 1 0 1h-3zm7 0a.5.5 0 1 1 0-1h1a.5.5 0 1 1 0 1h-1zm3 0a.5.5 0 1 1 0-1h5a.5.5 0 1 1 0 1h-5zM1 0a1 1 0 0 1 1 1v14a1 1 0 0 1-2 0V1a1 1 0 0 1 1-1zm22 0a1 1 0 0 1 1 1v14a1 1 0 0 1-2 0V1a1 1 0 0 1 1-1zM8 0a1 1 0 0 1 1 1v12a1 1 0 0 1-2 0V1a1 1 0 0 1 1-1zm7 0a1 1 0 0 1 1 1v12a1 1 0 0 1-2 0V1a1 1 0 0 1 1-1zm4 0a1 1 0 0 1 1 1v12a1 1 0 0 1-2 0V1a1 1 0 0 1 1-1zM4.5 0a.5.5 0 0 1 .5.5v13a.5.5 0 1 1-1 0V.5a.5.5 0 0 1 .5-.5zm7 0a.5.5 0 0 1 .5.5v13a.5.5 0 1 1-1 0V.5a.5.5 0 0 1 .5-.5z"/>
</svg>
