<svg xmlns="http://www.w3.org/2000/svg" width="24" height="32" viewBox="0 0 24 32">
    <g fill="none" fill-rule="evenodd">
        <path stroke="#F66" stroke-width="2" d="M1.737 1h15.23c.124 0 .282.117.843.715l4.635 4.718c.379.382.556.74.555 1.138v22.286c0 .672-.382 1.143-.737 1.143H1.737C1.382 31 1 30.53 1 29.857V2.143C1 1.47 1.382 1 1.737 1z"/>
        <path fill="#F66" d="M14.25 13.246a.84.84 0 0 1 1.189 0l.055.056a.84.84 0 0 1 0 1.188l-2.13 2.13 2.13 2.13a.84.84 0 0 1 0 1.189l-.055.055a.84.84 0 0 1-1.189 0l-2.13-2.13-2.13 2.13a.84.84 0 0 1-1.102.076l-.086-.076-.056-.055a.84.84 0 0 1 0-1.189l2.13-2.13-2.13-2.13a.84.84 0 0 1 0-1.188l.056-.056a.84.84 0 0 1 1.188 0l2.13 2.13z"/>
    </g>
</svg>
