<svg xmlns="http://www.w3.org/2000/svg" width="67" height="80" viewBox="0 0 67 80">
    <defs>
        <linearGradient id="a" x1="50%" x2="50%" y1="0%" y2="100%">
            <stop offset="0%" stop-color="#FC3"/>
            <stop offset="100%" stop-color="#F96"/>
        </linearGradient>
    </defs>
    <g fill="none" fill-rule="evenodd">
        <path fill="url(#a)" fill-rule="nonzero" d="M0 3.333v73.334A3.333 3.333 0 0 0 3.333 80h60.334A3.333 3.333 0 0 0 67 76.667V21.58c0-.444-.177-.869-.491-1.182L46.496.485A1.666 1.666 0 0 0 45.321 0H3.333A3.333 3.333 0 0 0 0 3.333z" opacity=".8"/>
        <path stroke="#FFF" stroke-width="2" d="M36.242 24.884a3 3 0 0 0-5.194 0L14.65 53.231a3 3 0 0 0 2.597 4.502h32.798a3 3 0 0 0 2.597-4.502l-16.4-28.347z" opacity=".5"/>
        <path stroke="#FFF" stroke-linecap="round" stroke-linejoin="round" stroke-width="2" d="M33.5 33v14" opacity=".504"/>
        <circle cx="33.5" cy="52" r="1" fill="#FFF" fill-rule="nonzero" opacity=".497"/>
        <path fill="#F96" fill-rule="nonzero" d="M46.063 0v17.227a3.333 3.333 0 0 0 3.333 3.333h17.337" opacity=".4"/>
    </g>
</svg>
